<svg width="252" height="50" viewBox="0 0 252 50" fill="none" xmlns="http://www.w3.org/2000/svg">
<path d="M27.75 35C27.75 32.9289 30.5482 31.25 34 31.25C37.4518 31.25 40.25 32.9289 40.25 35" stroke="#EFEFEF" stroke-width="2" stroke-linecap="round" stroke-linejoin="round"/>
<path d="M41.5 27.8125C43.7074 28.3912 45.25 29.7127 45.25 31.2505" stroke="#EFEFEF" stroke-width="2" stroke-linecap="round" stroke-linejoin="round"/>
<path d="M26.5 27.8125C24.2926 28.3912 22.75 29.7127 22.75 31.2505" stroke="#EFEFEF" stroke-width="2" stroke-linecap="round" stroke-linejoin="round"/>
<path d="M34 27.5C36.0711 27.5 37.75 25.8211 37.75 23.75C37.75 21.6789 36.0711 20 34 20C31.9289 20 30.25 21.6789 30.25 23.75C30.25 25.8211 31.9289 27.5 34 27.5Z" stroke="#EFEFEF" stroke-width="2" stroke-linecap="round" stroke-linejoin="round"/>
<path d="M41.5 22.7951C42.2672 22.1085 42.75 21.1106 42.75 20C42.75 17.9289 41.0711 16.25 39 16.25C38.0396 16.25 37.1634 16.6111 36.5 17.2049" stroke="#EFEFEF" stroke-width="2" stroke-linecap="round" stroke-linejoin="round"/>
<path d="M26.5 22.7951C25.7328 22.1085 25.25 21.1106 25.25 20C25.25 17.9289 26.9289 16.25 29 16.25C29.9604 16.25 30.8366 16.6111 31.5 17.2049" stroke="#EFEFEF" stroke-width="2" stroke-linecap="round" stroke-linejoin="round"/>
<path d="M70.816 15.752L76.672 32.68C75.68 33.096 74.176 33.352 73.152 33.288L71.712 28.936H65.088L63.68 33.288C62.688 33.352 61.312 33.096 60.32 32.68L66.208 15.752C67.456 15.56 69.536 15.56 70.816 15.752ZM65.952 26.152H70.784L68.352 18.728L65.952 26.152ZM78.792 34.792C77.992 34.28 77.192 33.128 77.032 32.072C80.008 30.888 81.224 30.504 81.224 26.504C81.224 22.888 81.192 19.208 81.064 16.104C82.184 15.688 83.496 15.496 84.648 15.56V26.952C84.648 30.248 83.976 32.968 78.792 34.792ZM101.481 15.56C102.633 15.528 104.393 15.72 105.449 16.104V32.936C104.969 33.16 103.625 33.32 102.153 33.128C102.153 29.672 102.121 24.264 102.089 20.456L97.8973 27.592C97.1613 27.784 96.4253 27.784 95.6892 27.592L91.4653 20.424V32.904C90.9533 33.128 89.6093 33.288 88.1693 33.096C88.1373 27.848 88.0733 22.216 87.9133 16.104C89.0013 15.688 91.0173 15.496 92.2013 15.56L96.8413 23.56L101.481 15.56ZM120.469 16.136C121.589 15.72 122.933 15.528 123.861 15.592V33C123.253 33.224 121.525 33.256 120.693 33.16L112.149 21.032V32.936C111.637 33.128 110.261 33.288 109.013 33.096C108.981 27.848 108.917 22.216 108.757 16.104C109.877 15.688 111.285 15.496 112.469 15.56L120.661 27.176C120.629 23.848 120.565 19.656 120.469 16.136ZM138.475 33.448C136.011 33.448 133.803 32.904 132.587 32.04C132.651 31.112 133.099 29.8 133.611 29.128C134.859 29.992 137.099 30.44 138.795 30.44C140.043 30.44 140.939 30.28 141.547 29.992C141.803 29.704 141.995 29.256 141.995 28.552C141.995 27.464 141.387 26.856 139.403 26.152L137.547 25.48C134.539 24.424 132.939 23.048 132.939 20.552C132.939 17.288 135.435 15.24 139.595 15.24C141.547 15.24 143.435 15.656 144.843 16.488C144.683 17.448 144.267 18.568 143.691 19.304C142.443 18.6 140.875 18.28 139.307 18.28C138.379 18.28 137.579 18.376 136.875 18.6C136.619 18.856 136.395 19.336 136.395 19.944C136.395 21 136.875 21.64 138.795 22.312L140.619 22.984C143.787 24.072 145.451 25.48 145.451 27.944C145.451 31.784 142.571 33.448 138.475 33.448ZM154.345 33.32C150.441 33.32 149.513 31.08 149.481 28.552L149.449 23.752H146.569C146.345 22.888 146.345 21.8 146.569 20.968H149.385L149.257 17.352C150.185 16.84 151.433 16.488 152.713 16.488V20.968H157.193C157.385 21.8 157.385 22.888 157.193 23.752H152.713V27.784C152.713 29.512 153.257 30.376 154.985 30.376C155.657 30.376 156.233 30.248 156.809 30.056C157.033 30.888 157.161 32.072 157.129 32.936C156.425 33.16 155.369 33.32 154.345 33.32ZM164.307 33.48C160.915 33.48 159.123 31.912 159.123 29.416C159.123 26.824 161.331 25.64 164.883 25.64C165.651 25.64 166.483 25.704 167.155 25.832V25.448C167.155 23.912 166.195 23.304 164.147 23.304C162.867 23.304 161.203 23.688 160.403 24.168C159.891 23.624 159.475 22.568 159.315 21.704C160.915 20.936 162.899 20.488 164.915 20.488C167.859 20.488 170.451 21.608 170.451 25.288V32.904C169.747 33.064 168.435 33.16 167.603 33.096L167.443 31.912C166.355 32.744 165.203 33.48 164.307 33.48ZM165.075 30.792C165.875 30.792 166.611 30.632 167.219 30.376L167.187 27.848C166.643 27.784 165.875 27.752 165.171 27.752C163.987 27.752 163.155 27.88 162.547 28.2C162.451 28.424 162.387 28.712 162.387 29.032C162.387 30.312 163.635 30.792 165.075 30.792ZM175.297 33.096L175.233 23.752H172.257C172.065 22.888 172.065 21.8 172.257 20.968H175.233V20.488C175.233 15.976 178.977 13.8 182.561 13.576C183.137 14.216 183.489 15.4 183.585 16.648C179.777 17.032 178.497 18.44 178.497 20.68V20.968H182.625C182.817 21.8 182.817 22.888 182.625 23.752H178.529V32.904C178.081 33.128 176.705 33.288 175.297 33.096ZM184.203 33.096L184.139 23.752H181.163C180.971 22.888 180.971 21.8 181.163 20.968H184.139V20.488C184.139 15.976 187.883 13.8 191.467 13.576C192.043 14.216 192.395 15.4 192.491 16.648C188.683 17.032 187.403 18.44 187.403 20.68V20.968H191.531C191.723 21.8 191.723 22.888 191.531 23.752H187.435V32.904C186.987 33.128 185.611 33.288 184.203 33.096Z" fill="#EFEFEF"/>
<rect x="1.5" y="1.5" width="249" height="47" rx="23.5" stroke="#EFEFEF" stroke-width="3"/>
</svg>
