<svg width="48" height="58" viewBox="0 0 48 58" fill="none" xmlns="http://www.w3.org/2000/svg">
<mask id="mask0_947_132" style="mask-type:luminance" maskUnits="userSpaceOnUse" x="0" y="0" width="48" height="58">
<path fill-rule="evenodd" clip-rule="evenodd" d="M30.5532 11.5962C29.6483 11.5962 28.9158 10.8425 28.9158 9.91158C28.9158 8.98061 29.6483 8.2304 30.5532 8.2304C31.458 8.2304 32.1905 8.98061 32.1905 9.91158C32.1905 10.8425 31.458 11.5962 30.5532 11.5962ZM17.4526 11.5962C16.5477 11.5962 15.8152 10.8425 15.8152 9.91158C15.8152 8.98061 16.5477 8.2304 17.4526 8.2304C18.3575 8.2304 19.09 8.98061 19.09 9.91158C19.09 10.8425 18.3575 11.5962 17.4526 11.5962ZM31.5185 4.85566L32.1284 3.90764L32.7383 2.97327L34.0972 0.872651C34.2663 0.613481 34.1967 0.265645 33.9448 0.0951409C33.6962 -0.0787709 33.3548 -0.00715443 33.1924 0.252003L31.1175 3.44728L30.4943 4.40893C28.5222 3.6212 26.3246 3.18129 24.0044 3.18129C21.6876 3.18129 19.4867 3.6212 17.5145 4.40893L16.8947 3.44728L16.2815 2.50268L14.8231 0.252003C14.6541 -0.00715443 14.316 -0.0753634 14.0641 0.0951409C13.8155 0.265645 13.7459 0.613481 13.9116 0.872651L15.2706 2.97327L15.8805 3.90764L16.4937 4.85566C11.8632 7.07563 8.73098 11.2803 8.73098 16.092H39.2779C39.2779 11.2803 36.1456 7.07563 31.5185 4.85566ZM8.96631 18.3351H8.73098V43.0311C8.73098 44.9919 10.2789 46.5878 12.1881 46.5878H14.6806C14.5944 46.8845 14.548 47.1948 14.548 47.5222V54.6323C14.548 56.4908 16.0164 57.9981 17.8228 57.9981C19.6292 57.9981 21.0976 56.4908 21.0976 54.6323V47.5222C21.0976 47.1948 21.0479 46.8845 20.965 46.5878H27.0439C26.961 46.8845 26.9146 47.1948 26.9146 47.5222V54.6323C26.9146 56.4908 28.3796 57.9981 30.1861 57.9981C31.9958 57.9981 33.4642 56.4908 33.4642 54.6323V47.5222C33.4642 47.1948 33.4144 46.8845 33.3283 46.5878H35.8241C37.7333 46.5878 39.2779 44.9919 39.2779 43.0311V18.3351H8.96631ZM3.27478 18.3351C1.46503 18.3351 0 19.8424 0 21.7009V36.1086C0 37.9671 1.46503 39.4744 3.27478 39.4744C5.08121 39.4744 6.54624 37.9671 6.54624 36.1086V21.7009C6.54624 19.8424 5.08121 18.3351 3.27478 18.3351ZM44.7286 18.3351C42.9188 18.3351 41.4538 19.8424 41.4538 21.7009V36.1086C41.4538 37.9671 42.9188 39.4744 44.7286 39.4744C46.535 39.4744 48 37.9671 48 36.1086V21.7009C48 19.8424 46.535 18.3351 44.7286 18.3351Z" fill="white"/>
</mask>
<g mask="url(#mask0_947_132)">
<path fill-rule="evenodd" clip-rule="evenodd" d="M30.5532 11.5962C29.6483 11.5962 28.9158 10.8425 28.9158 9.91158C28.9158 8.98061 29.6483 8.2304 30.5532 8.2304C31.458 8.2304 32.1905 8.98061 32.1905 9.91158C32.1905 10.8425 31.458 11.5962 30.5532 11.5962ZM17.4526 11.5962C16.5477 11.5962 15.8152 10.8425 15.8152 9.91158C15.8152 8.98061 16.5477 8.2304 17.4526 8.2304C18.3575 8.2304 19.09 8.98061 19.09 9.91158C19.09 10.8425 18.3575 11.5962 17.4526 11.5962ZM31.5185 4.85566L32.1284 3.90764L32.7383 2.97327L34.0972 0.872651C34.2663 0.613481 34.1967 0.265645 33.9448 0.0951409C33.6962 -0.0787709 33.3548 -0.00715443 33.1924 0.252003L31.1175 3.44728L30.4943 4.40893C28.5222 3.6212 26.3246 3.18129 24.0044 3.18129C21.6876 3.18129 19.4867 3.6212 17.5145 4.40893L16.8947 3.44728L16.2815 2.50268L14.8231 0.252003C14.6541 -0.00715443 14.316 -0.0753634 14.0641 0.0951409C13.8155 0.265645 13.7459 0.613481 13.9116 0.872651L15.2706 2.97327L15.8805 3.90764L16.4937 4.85566C11.8632 7.07563 8.73098 11.2803 8.73098 16.092H39.2779C39.2779 11.2803 36.1456 7.07563 31.5185 4.85566ZM8.96631 18.3351H8.73098V43.0311C8.73098 44.9919 10.2789 46.5878 12.1881 46.5878H14.6806C14.5944 46.8845 14.548 47.1948 14.548 47.5222V54.6323C14.548 56.4908 16.0164 57.9981 17.8228 57.9981C19.6292 57.9981 21.0976 56.4908 21.0976 54.6323V47.5222C21.0976 47.1948 21.0479 46.8845 20.965 46.5878H27.0439C26.961 46.8845 26.9146 47.1948 26.9146 47.5222V54.6323C26.9146 56.4908 28.3796 57.9981 30.1861 57.9981C31.9958 57.9981 33.4642 56.4908 33.4642 54.6323V47.5222C33.4642 47.1948 33.4144 46.8845 33.3283 46.5878H35.8241C37.7333 46.5878 39.2779 44.9919 39.2779 43.0311V18.3351H8.96631ZM3.27478 18.3351C1.46503 18.3351 0 19.8424 0 21.7009V36.1086C0 37.9671 1.46503 39.4744 3.27478 39.4744C5.08121 39.4744 6.54624 37.9671 6.54624 36.1086V21.7009C6.54624 19.8424 5.08121 18.3351 3.27478 18.3351ZM44.7286 18.3351C42.9188 18.3351 41.4538 19.8424 41.4538 21.7009V36.1086C41.4538 37.9671 42.9188 39.4744 44.7286 39.4744C46.535 39.4744 48 37.9671 48 36.1086V21.7009C48 19.8424 46.535 18.3351 44.7286 18.3351Z" fill="white"/>
</g>
</svg>
