<svg width="35" height="35" viewBox="0 0 35 35" fill="none" xmlns="http://www.w3.org/2000/svg">
<path d="M10.2109 27.707C10.2109 25.2908 13.4755 23.332 17.5026 23.332C21.5297 23.332 24.7943 25.2908 24.7943 27.707" stroke="#666666" stroke-width="2" stroke-linecap="round" stroke-linejoin="round"/>
<path d="M17.5 18.957C19.9162 18.957 21.875 16.9983 21.875 14.582C21.875 12.1658 19.9162 10.207 17.5 10.207C15.0838 10.207 13.125 12.1658 13.125 14.582C13.125 16.9983 15.0838 18.957 17.5 18.957Z" stroke="#666666" stroke-width="2" stroke-linecap="round" stroke-linejoin="round"/>
<path d="M17.5 30.625C24.7487 30.625 30.625 24.7487 30.625 17.5C30.625 10.2513 24.7487 4.375 17.5 4.375C10.2513 4.375 4.375 10.2513 4.375 17.5C4.375 24.7487 10.2513 30.625 17.5 30.625Z" stroke="#666666" stroke-width="2" stroke-miterlimit="10" stroke-linecap="round" stroke-linejoin="round"/>
</svg>
