<svg width="40" height="40" viewBox="0 0 40 40" fill="none" xmlns="http://www.w3.org/2000/svg">
<path d="M11.6641 31.668C11.6641 28.9065 15.395 26.668 19.9974 26.668C24.5998 26.668 28.3307 28.9065 28.3307 31.668" stroke="#9D9D9D" stroke-width="3" stroke-linecap="round" stroke-linejoin="round"/>
<path d="M20 21.668C22.7614 21.668 25 19.4294 25 16.668C25 13.9065 22.7614 11.668 20 11.668C17.2386 11.668 15 13.9065 15 16.668C15 19.4294 17.2386 21.668 20 21.668Z" stroke="#9D9D9D" stroke-width="3" stroke-linecap="round" stroke-linejoin="round"/>
<path d="M20 35C28.2843 35 35 28.2843 35 20C35 11.7157 28.2843 5 20 5C11.7157 5 5 11.7157 5 20C5 28.2843 11.7157 35 20 35Z" stroke="#9D9D9D" stroke-width="3" stroke-miterlimit="10" stroke-linecap="round" stroke-linejoin="round"/>
</svg>
